<?xml version="1.0" standalone="no"?>
<!DOCTYPE svg PUBLIC "-//W3C//DTD SVG 20010904//EN"
 "http://www.w3.org/TR/2001/REC-SVG-20010904/DTD/svg10.dtd">
<svg version="1.0" xmlns="http://www.w3.org/2000/svg"
 width="400.000000pt" height="400.000000pt" viewBox="0 0 400.000000 400.000000"
 preserveAspectRatio="xMidYMid meet">

<g transform="translate(0.000000,400.000000) scale(0.100000,-0.100000)"
fill="#000000" stroke="none">
<path d="M0 2000 l0 -2000 2000 0 2000 0 0 2000 0 2000 -2000 0 -2000 0 0
-2000z m2702 1343 c10 -9 18 -30 18 -48 0 -40 -44 -217 -65 -264 -9 -18 -15
-34 -13 -35 2 0 12 -6 23 -12 18 -10 28 -3 92 65 45 49 93 89 130 108 64 35
190 73 239 73 78 0 84 -83 17 -223 -42 -86 -66 -160 -78 -233 -7 -44 -8 -40
93 -205 51 -84 103 -210 133 -324 21 -77 24 -112 23 -245 -1 -135 -5 -175 -33
-305 -17 -82 -45 -216 -61 -298 -16 -81 -37 -161 -47 -178 -21 -35 -124 -117
-268 -212 -158 -105 -368 -161 -605 -161 -248 -1 -477 90 -607 240 -96 111
-192 151 -363 153 -221 1 -424 90 -521 229 -21 29 -57 96 -80 150 -40 90 -43
103 -43 182 0 129 32 183 99 166 13 -3 31 -14 40 -23 10 -9 28 -18 41 -19 14
-2 45 -14 71 -28 49 -28 114 -34 130 -13 10 12 33 95 33 119 0 7 -33 27 -72
43 -40 17 -108 51 -152 78 -43 26 -83 47 -87 47 -4 0 -10 -9 -14 -19 -8 -27
-71 -81 -94 -81 -51 0 -67 62 -82 318 -10 187 -10 193 10 226 12 18 38 44 58
58 48 30 223 91 328 113 88 19 219 65 262 92 16 9 51 36 78 59 67 56 153 110
212 133 55 21 195 41 295 41 96 0 218 18 258 39 19 10 79 41 132 70 112 60
343 139 407 140 28 1 51 -5 63 -16z"/>
<path d="M3044 3180 c-158 -49 -196 -76 -297 -210 -23 -30 -78 -101 -122 -156
-44 -56 -96 -123 -115 -148 -19 -26 -40 -52 -45 -59 -6 -7 -50 -64 -98 -127
-140 -186 -250 -330 -282 -371 -16 -21 -61 -79 -100 -129 -38 -51 -85 -111
-103 -133 -17 -23 -35 -46 -40 -52 -4 -5 -28 -37 -54 -70 -26 -33 -98 -127
-160 -210 -127 -170 -119 -159 -154 -203 -15 -18 -25 -34 -23 -36 2 -2 33 -14
69 -26 36 -12 76 -28 90 -35 31 -16 88 -71 109 -107 43 -70 224 -171 372 -207
137 -34 276 -31 482 10 156 31 209 53 328 135 31 21 88 60 126 87 114 78 128
98 146 202 23 129 55 291 72 355 20 80 45 258 45 328 0 164 -73 391 -184 570
-95 154 -89 139 -76 207 17 85 47 168 92 251 21 39 41 92 44 117 8 57 7 58
-122 17z"/>
</g>
</svg>
